<svg id="wave" style="transform:rotate(180deg); transition: 0.3s" viewBox="0 0 1440 180" version="1.1"
    xmlns="http://www.w3.org/2000/svg">
    <defs>
        <linearGradient id="sw-gradient-0" x1="0" x2="0" y1="1" y2="0">
            <stop stop-color="#ffffff" offset="30%"></stop>
            <stop stop-color="rgba(255,255,255,0)" offset="70%"></stop>
        </linearGradient>
    </defs>
    <path style="transform:translate(0, 0px); opacity:1" fill="url(#sw-gradient-0)"
        d="M0,54L48,63C96,72,192,90,288,93C384,96,480,84,576,93C672,102,768,132,864,129C960,126,1056,90,1152,87C1248,84,1344,114,1440,108C1536,102,1632,60,1728,51C1824,42,1920,66,2016,90C2112,114,2208,138,2304,138C2400,138,2496,114,2592,105C2688,96,2784,102,2880,87C2976,72,3072,36,3168,42C3264,48,3360,96,3456,99C3552,102,3648,60,3744,57C3840,54,3936,90,4032,105C4128,120,4224,114,4320,108C4416,102,4512,96,4608,102C4704,108,4800,126,4896,132C4992,138,5088,132,5184,120C5280,108,5376,90,5472,81C5568,72,5664,72,5760,66C5856,60,5952,48,6048,39C6144,30,6240,24,6336,36C6432,48,6528,78,6624,90C6720,102,6816,96,6864,93L6912,90L6912,180L6864,180C6816,180,6720,180,6624,180C6528,180,6432,180,6336,180C6240,180,6144,180,6048,180C5952,180,5856,180,5760,180C5664,180,5568,180,5472,180C5376,180,5280,180,5184,180C5088,180,4992,180,4896,180C4800,180,4704,180,4608,180C4512,180,4416,180,4320,180C4224,180,4128,180,4032,180C3936,180,3840,180,3744,180C3648,180,3552,180,3456,180C3360,180,3264,180,3168,180C3072,180,2976,180,2880,180C2784,180,2688,180,2592,180C2496,180,2400,180,2304,180C2208,180,2112,180,2016,180C1920,180,1824,180,1728,180C1632,180,1536,180,1440,180C1344,180,1248,180,1152,180C1056,180,960,180,864,180C768,180,672,180,576,180C480,180,384,180,288,180C192,180,96,180,48,180L0,180Z">
    </path>
</svg>